<?xml version="1.0" encoding="utf-8"?>
<!-- Generator: Adobe Illustrator 18.1.1, SVG Export Plug-In . SVG Version: 6.00 Build 0)  -->
<svg version="1.1" id="Layer_2" xmlns="http://www.w3.org/2000/svg" xmlns:xlink="http://www.w3.org/1999/xlink" x="0px" y="0px"
	 viewBox="0 0 1000 1000" enable-background="new 0 0 1000 1000" xml:space="preserve">
<path fill="#EFC592" d="M637.8,591.9l-74.4-42.2L546.9,674l52.8,108.3c24.3,5.4,49.4-3.9,61.4-24.8c12.7-22,7-50-12.1-68.3
	L637.8,591.9"/>
<polygon fill="#26263F" points="502.1,761.7 502.1,824.6 532.3,890.5 600.5,803 599,749.6 525.9,721 "/>
<line fill="none" stroke="#000000" stroke-width="10" stroke-miterlimit="10" x1="502.1" y1="824.6" x2="502.1" y2="761.7"/>
<line fill="none" stroke="#000000" stroke-width="10" stroke-miterlimit="10" x1="599" y1="749.6" x2="600.5" y2="803"/>
<path fill="none" stroke="#000000" stroke-width="10" stroke-linecap="round" stroke-miterlimit="10" d="M599,762.3
	c6.4,0.5,13-0.7,19-3.9c16.9-8.9,23.6-30,16.3-49"/>
<path fill="none" stroke="#000000" stroke-width="10" stroke-miterlimit="10" d="M637.8,591.9l11.3,97.3
	c19.1,18.3,24.8,46.3,12.1,68.3c-12.1,21-37.1,30.3-61.4,24.8"/>
<path fill="#EFC592" d="M364.2,591.9l74.4-42.2L455.1,674l-52.8,108.3c-24.3,5.4-49.4-3.9-61.4-24.8c-12.7-22-7-50,12.1-68.3
	L364.2,591.9"/>
<polygon fill="#26263F" points="500,761.7 500,824.6 469.8,890.5 401.5,803 403.1,749.6 476.1,721 "/>
<path fill="#1E1E1E" d="M456.7,836.2c0,0,4.3,6,21.9,1.9c15.2-3.5,21.3-13.6,21.3-13.6v61.2c0,19.1-33.5,47.4-115.9,47.4
	c-33.2,0-53.9-18.3-53.9-40.9c0-31.5,26.7-58.2,63.5-67c0,0-2.2-15.7,9.3-23.4c10.6-7.1,39.3,1.6,47,9.2c6.8,6.7,9.7,25.5,3.6,35.9
	c-8.3,14.1-20.9,8.8-38.3,22.8c-14.7,11.8-13,21.5-42.9,22.6c-6.5,0.2-42.2-5.5-32.8-31.4"/>
<line fill="none" stroke="#000000" stroke-width="10" stroke-miterlimit="10" x1="500" y1="824.6" x2="500" y2="761.7"/>
<line fill="none" stroke="#000000" stroke-width="10" stroke-miterlimit="10" x1="403.1" y1="749.6" x2="401.5" y2="803"/>
<path fill="none" stroke="#000000" stroke-width="10" stroke-linecap="round" stroke-miterlimit="10" d="M403.1,762.3
	c-6.4,0.5-13-0.7-19-3.9c-16.9-8.9-23.6-30-16.3-49"/>
<path fill="none" stroke="#000000" stroke-width="10" stroke-miterlimit="10" d="M364.2,591.9L353,689.2
	c-19.1,18.3-24.8,46.3-12.1,68.3c12.1,21,37.1,30.3,61.4,24.8"/>
<path fill="#664746" stroke="#000000" stroke-width="10" stroke-miterlimit="10" d="M473.3,839.2"/>
<path d="M330.6,885.7c-0.3,2.2-0.4,4.4-0.4,6.6c0,22.6,20.7,40.9,53.9,40.9c82.4,0,115.9-28.4,115.9-47.4v-23.5
	c-15.3,19.9-47.4,50.5-113.3,50.5C372.4,912.8,337,911,330.6,885.7"/>
<path d="M454.9,819.8c2.8,8.5,3,20-1.3,27.3c-8.3,14.1-20.9,8.8-38.3,22.8c-14.7,11.8-13,21.5-42.9,22.6
	c-6.5,0.2-42.2-5.5-32.8-31.4c10.8-17.4,30-30,54-35.7c3.2,6.4,12,9.9,16.4,12.4c5.3,3,21,6.4,30.1,4.1
	C450.8,839.1,456.2,828.2,454.9,819.8L454.9,819.8z"/>
<path fill="none" stroke="#000000" stroke-width="10" stroke-miterlimit="10" d="M500,862.3c-15.3,19.9-47.4,50.5-113.3,50.5
	c-14.2,0-49.7-1.8-56.1-27.1"/>
<path fill="none" stroke="#000000" stroke-width="10" stroke-miterlimit="10" d="M393.7,825.3c3.2,6.4,12,9.9,16.4,12.4
	c5.3,3,21,6.4,30.1,4.1c10.6-2.7,16.1-13.6,14.7-22"/>
<path fill="#1E1E1E" d="M545.3,836.2c0,0-4.3,6-21.9,1.9c-15.2-3.5-21.3-13.6-21.3-13.6v61.2c0,19.1,33.5,47.4,115.9,47.4
	c33.2,0,53.9-18.3,53.9-40.9c0-31.5-26.7-58.2-63.5-67c0,0,2.2-15.7-9.3-23.4c-10.6-7.1-39.3,1.6-47,9.2c-6.8,6.7-9.7,25.5-3.6,35.9
	c8.3,14.1,20.9,8.8,38.3,22.8c14.7,11.8,13,21.5,42.9,22.6c6.5,0.2,42.2-5.5,32.8-31.4"/>
<path fill="#664746" stroke="#000000" stroke-width="10" stroke-miterlimit="10" d="M528.8,839.2"/>
<path d="M671.4,885.7c0.3,2.2,0.4,4.4,0.4,6.6c0,22.6-20.7,40.9-53.9,40.9c-82.4,0-115.9-28.4-115.9-47.4v-23.5
	c15.3,19.9,47.4,50.5,113.3,50.5C629.6,912.8,665.1,911,671.4,885.7"/>
<path d="M547.2,819.8c-2.8,8.5-3,20,1.3,27.3c8.3,14.1,20.9,8.8,38.3,22.8c14.7,11.8,13,21.5,42.9,22.6c6.5,0.2,42.2-5.5,32.8-31.4
	c-10.8-17.4-30-30-54-35.7c-3.2,6.4-12,9.9-16.4,12.4c-5.3,3-21,6.4-30.1,4.1C551.3,839.1,545.8,828.2,547.2,819.8L547.2,819.8z"/>
<path fill="none" stroke="#000000" stroke-width="10" stroke-miterlimit="10" d="M502.1,862.3c15.3,19.9,47.4,50.5,113.3,50.5
	c14.2,0,49.7-1.8,56.1-27.1"/>
<path fill="none" stroke="#000000" stroke-width="10" stroke-miterlimit="10" d="M545.3,836.2c0,0-4.3,6-21.9,1.9
	c-15.2-3.5-21.3-13.6-21.3-13.6v61.2c0,19.1,33.5,47.4,115.9,47.4c33.2,0,53.9-18.3,53.9-40.9c0-31.5-26.7-58.2-63.5-67
	c0,0,2.2-15.7-9.3-23.4c-10.6-7.1-39.3,1.6-47,9.2c-6.8,6.7-9.7,25.5-3.6,35.9c8.3,14.1,20.9,8.8,38.3,22.8
	c14.7,11.8,13,21.5,42.9,22.6c6.5,0.2,42.2-5.5,32.8-31.4"/>
<path fill="none" stroke="#000000" stroke-width="10" stroke-miterlimit="10" d="M608.4,825.3c-3.2,6.4-12,9.9-16.4,12.4
	c-5.3,3-21,6.4-30.1,4.1c-10.6-2.7-16.1-13.6-14.7-22"/>
<path fill="none" stroke="#000000" stroke-width="10" stroke-miterlimit="10" d="M456.7,836.2c0,0,4.3,6,21.9,1.9
	c15.2-3.5,21.3-13.6,21.3-13.6v61.2c0,19.1-33.5,47.4-115.9,47.4c-33.2,0-53.9-18.3-53.9-40.9c0-31.5,26.7-58.2,63.5-67
	c0,0-2.2-15.7,9.3-23.4c10.6-7.1,39.3,1.6,47,9.2c6.8,6.7,9.7,25.5,3.6,35.9c-8.3,14.1-20.9,8.8-38.3,22.8
	c-14.7,11.8-13,21.5-42.9,22.6c-6.5,0.2-42.2-5.5-32.8-31.4"/>
<ellipse transform="matrix(0.8799 0.4752 -0.4752 0.8799 447.5738 -86.9528)" fill="#1E1E1E" stroke="#000000" stroke-width="10" stroke-miterlimit="10" cx="395.8" cy="841.8" rx="26.2" ry="7.5"/>
<ellipse transform="matrix(0.8799 0.4752 -0.4752 0.8799 449.6444 -78.0667)" fill="#1E1E1E" stroke="#000000" stroke-width="10" stroke-miterlimit="10" cx="379.2" cy="850.3" rx="26.2" ry="7.5"/>
<ellipse transform="matrix(0.8799 0.4752 -0.4752 0.8799 453.2782 -70.8161)" fill="#1E1E1E" stroke="#000000" stroke-width="10" stroke-miterlimit="10" cx="366.7" cy="861.1" rx="26.2" ry="7.5"/>
<ellipse transform="matrix(-0.8799 0.4752 -0.4752 -0.8799 1539.7668 1294.361)" fill="#1E1E1E" stroke="#000000" stroke-width="10" stroke-miterlimit="10" cx="606.3" cy="841.8" rx="26.2" ry="7.5"/>
<ellipse transform="matrix(-0.8799 0.4752 -0.4752 -0.8799 1574.9193 1302.5519)" fill="#1E1E1E" stroke="#000000" stroke-width="10" stroke-miterlimit="10" cx="622.8" cy="850.3" rx="26.2" ry="7.5"/>
<ellipse transform="matrix(-0.8799 0.4752 -0.4752 -0.8799 1603.6021 1316.9265)" fill="#1E1E1E" stroke="#000000" stroke-width="10" stroke-miterlimit="10" cx="635.3" cy="861.1" rx="26.2" ry="7.5"/>
<rect x="590.5" y="661.5" transform="matrix(-0.996 8.916338e-002 -8.916338e-002 -0.996 1291.1409 1288.1796)" fill="#A63A91" stroke="#000000" stroke-width="10" stroke-miterlimit="10" width="52.6" height="22.8"/>
<ellipse transform="matrix(0.9952 -9.740057e-002 9.740057e-002 0.9952 -62.2237 65.8894)" fill="#262626" stroke="#000000" stroke-width="10" stroke-miterlimit="10" cx="643.8" cy="670.3" rx="8.7" ry="16.6"/>
<path d="M467.8,463.1C407.3,473.6,359.2,520,346,579.5c14.9,13.3,34.6,21.4,56.2,21.4c2.1,0,4.1-0.1,6.2-0.2l3.1-30.9
	c0,0-18.2,175.6-13.9,177.7c9.7,4.8,49.1,13.9,102.5,14.3c53.4-0.3,92.8-9.4,102.5-14.3c4.3-2.1-13.9-177.7-13.9-177.7l3.1,30.9
	c2,0.1,4.1,0.2,6.2,0.2c21.6,0,41.2-8.1,56.2-21.4c-13.2-59.5-61.3-105.9-121.8-116.4"/>
<ellipse transform="matrix(-0.9376 -0.3477 0.3477 -0.9376 1112.0485 920.5781)" fill="#EFC592" stroke="#000000" stroke-width="10" stroke-miterlimit="10" cx="638.6" cy="360.5" rx="35.5" ry="51.1"/>
<ellipse transform="matrix(0.9376 -0.3477 0.3477 0.9376 -102.7967 148.1296)" fill="#EFC592" stroke="#000000" stroke-width="10" stroke-miterlimit="10" cx="361.4" cy="360.5" rx="35.5" ry="51.1"/>
<path fill="none" stroke="#000000" stroke-width="10" stroke-miterlimit="10" d="M532.2,463.1C592.7,473.6,640.8,520,654,579.5
	c-14.9,13.3-34.6,21.4-56.2,21.4c-2.1,0-4.1-0.1-6.2-0.2"/>
<path fill="none" stroke="#000000" stroke-width="10" stroke-miterlimit="10" d="M467.8,463.1C407.3,473.6,359.2,520,346,579.5
	c14.9,13.3,34.6,21.4,56.2,21.4c2.1,0,4.1-0.1,6.2-0.2"/>
<path fill="#EFC592" stroke="#000000" stroke-width="10" stroke-miterlimit="10" d="M346,246.1c0-76,68.9-137.6,154-137.6
	c85,0,154,61.6,154,137.6c5.5,93.5-15.7,159.2-31.7,183.1c-16.1,23.9-64.9,80.3-122.2,80.3c-57.4,0-106.1-56.4-122.2-80.3
	C361.7,405.2,340.5,339.6,346,246.1z"/>
<g>
	<ellipse stroke="#000000" stroke-width="10" stroke-miterlimit="10" cx="579.3" cy="345.4" rx="13.8" ry="20.3"/>
	<ellipse stroke="#000000" stroke-width="10" stroke-miterlimit="10" cx="420.7" cy="345.4" rx="13.8" ry="20.3"/>
</g>
<path fill="none" stroke="#000000" stroke-width="10" stroke-linecap="round" stroke-miterlimit="10" d="M525.5,393
	c0,18.7-11.4,16.9-25.5,16.9c-14.1,0-25.5,1.8-25.5-16.9"/>
<path fill="none" stroke="#000000" stroke-width="10" stroke-linecap="round" stroke-miterlimit="10" d="M533.2,448.9
	c-8.7,3.6-20.3,5.8-33,5.8c-12.9,0-24.7-2.3-33.4-5.9"/>
<path fill="none" stroke="#000000" stroke-width="10" stroke-miterlimit="10" d="M478.8,334.3c0-11.1,10-15.2,21.2-15.2
	s21.2,4,21.2,15.2"/>
<g>
	<path fill="none" stroke="#000000" stroke-width="10" stroke-miterlimit="10" d="M615.7,382.6h-73c-9.7,0-17.5-7.8-17.5-17.5
		l-5-38.7c0-9.7,7.8-17.5,17.5-17.5h81c9.7,0,17.5,7.8,17.5,17.5l-3,38.7C633.2,374.7,625.4,382.6,615.7,382.6z"/>
	<path fill="none" stroke="#000000" stroke-width="10" stroke-miterlimit="10" d="M457.3,382.6h-73c-9.7,0-17.5-7.8-17.5-17.5
		l-3-38.7c0-9.7,7.8-17.5,17.5-17.5h81c9.7,0,17.5,7.8,17.5,17.5l-5,38.7C474.8,374.7,466.9,382.6,457.3,382.6z"/>
</g>
<line fill="none" stroke="#000000" stroke-width="10" stroke-miterlimit="10" x1="363.8" y1="342.4" x2="343.6" y2="312.6"/>
<line fill="none" stroke="#000000" stroke-width="10" stroke-miterlimit="10" x1="636.2" y1="342.4" x2="656.4" y2="312.6"/>
<path fill="none" stroke="#000000" stroke-width="10" stroke-linecap="round" stroke-miterlimit="10" d="M411.5,569.7
	c0,0-18.2,175.6-13.9,177.7c9.7,4.8,49.1,13.9,102.5,14.3c53.4-0.3,92.8-9.4,102.5-14.3c4.3-2.1-13.9-177.7-13.9-177.7"/>
<g>
	<g>
		<path d="M478.4,852.1c0,0,0,0.6-0.4,1.8c-0.3,1.1-0.9,2.8-2,4.7c-1.1,1.9-2.6,4.2-4.6,6.5c-2,2.3-4.6,4.8-7.6,7.1
			c-3,2.4-6.5,4.6-10.3,6.8c-3.8,2.1-8,4.1-12.3,5.8c-2.2,0.9-4.4,1.7-6.7,2.4c-1.1,0.4-2.3,0.8-3.5,1.1l-1.8,0.5l-0.4,0.1l-0.5,0.1
			l-0.9,0.2c-5,1.3-10.1,2.1-15.3,2.4c-5.1,0.3-10.3,0.1-15.2-0.4c-5-0.5-9.8-1.4-14.4-2.5c-4.6-1.1-8.9-2.4-13-3.9
			c-4-1.5-7.8-3-11.2-4.6c-3.4-1.6-6.4-3.1-9.1-4.6c-2.6-1.5-4.9-2.9-6.7-4c-1.8-1.2-3.2-2.2-4.1-2.8c-0.9-0.7-1.4-1.1-1.4-1.1
			s0.6,0.2,1.7,0.6c1.1,0.4,2.7,0.9,4.7,1.5c2,0.7,4.5,1.4,7.4,2.3c2.8,0.8,6,1.8,9.5,2.7c3.5,0.9,7.3,1.9,11.3,2.8
			c4,0.9,8.2,1.7,12.6,2.4c4.4,0.7,8.9,1.2,13.5,1.6c4.6,0.3,9.2,0.4,13.8,0.1c4.6-0.2,9.2-0.9,13.5-1.8l0.9-0.2l0.4-0.1l0.4-0.1
			l1.7-0.4c1.1-0.3,2.2-0.5,3.3-0.9c2.2-0.6,4.4-1.2,6.5-1.8c4.2-1.3,8.3-2.7,12-4.2c3.8-1.5,7.2-3.1,10.3-4.8
			c3.1-1.7,5.8-3.4,8.1-5.1c2.3-1.7,4.2-3.4,5.6-4.9c1.4-1.5,2.5-2.8,3.1-3.8C478.2,852.7,478.4,852.1,478.4,852.1z"/>
	</g>
	<g>
		<path d="M521.6,853.8c0,0,0.3,0.6,0.9,1.5c0.6,1,1.7,2.3,3.1,3.8c1.4,1.5,3.3,3.2,5.6,4.9c2.3,1.7,5,3.5,8.1,5.1
			c3.1,1.7,6.6,3.3,10.3,4.8c3.8,1.5,7.8,2.9,12,4.2c2.1,0.6,4.3,1.3,6.5,1.8c1.1,0.3,2.2,0.6,3.3,0.9l1.7,0.4l0.4,0.1l0.4,0.1
			l0.9,0.2c4.3,0.9,8.9,1.6,13.5,1.8c4.6,0.3,9.2,0.2,13.8-0.1c4.6-0.3,9.1-0.9,13.5-1.6c4.4-0.7,8.6-1.5,12.6-2.4
			c4-0.9,7.8-1.8,11.3-2.8c3.5-0.9,6.7-1.9,9.5-2.7c2.8-0.9,5.3-1.6,7.4-2.3c2-0.7,3.6-1.2,4.7-1.5c1.1-0.4,1.7-0.6,1.7-0.6
			s-0.5,0.4-1.4,1.1c-0.9,0.7-2.3,1.7-4.1,2.8c-1.8,1.2-4.1,2.6-6.7,4c-2.6,1.5-5.7,3-9.1,4.6c-3.4,1.6-7.1,3.1-11.2,4.6
			c-4,1.4-8.4,2.8-13,3.9c-4.6,1.1-9.4,2-14.4,2.5c-5,0.5-10.1,0.7-15.2,0.4c-5.1-0.3-10.3-1.1-15.3-2.4l-0.9-0.2l-0.5-0.1l-0.4-0.1
			l-1.8-0.5c-1.2-0.4-2.3-0.7-3.5-1.1c-2.3-0.7-4.5-1.6-6.7-2.4c-4.4-1.7-8.5-3.7-12.3-5.8c-3.8-2.1-7.3-4.4-10.3-6.8
			c-3-2.4-5.5-4.8-7.6-7.1c-2-2.3-3.5-4.6-4.6-6.5c-1.1-1.9-1.7-3.6-2-4.7C521.6,854.5,521.6,853.8,521.6,853.8z"/>
	</g>
</g>
<path fill="#4C4239" stroke="#000000" stroke-width="10" stroke-miterlimit="10" d="M611.5,203c18.8,9.9,41.3,88.3,39.7,131.7
	c7.5-33.9,17.8-106.2,3.7-142.2C634.5,170,611.5,203,611.5,203z"/>
<path fill="#2B2016" stroke="#000000" stroke-width="10" stroke-miterlimit="10" d="M343.8,302.8c-2.9-32.7-0.7-66.6-0.7-66.6
	l-9.8,7.8c0,0-0.5-19.2,3.5-36.6s10.3-32.8,10.3-32.8l-9.4-0.2c0,0,4.3-10.9,13.2-21.9s20.6-20.2,20.6-20.2l-8.7-4.7
	c0,0,9.1-14,35.5-28.5c26.4-14.4,53.3-17,53.3-17l-3.2-9.8c0,0,18.2-4.4,40.1-2.9s59.1,7.1,59.1,7.1l-3.1-9.7c0,0,61.7,11.2,97.4,75
	c9.4,16.8,17,32.2,21,51.5c5.7,26.7,0.6,48.2,0.6,48.2s-1.6-7.8-4.6-22c-3.6-16.8-10.4-22-10.4-22s0.4,10.1,2.1,21.1
	c1.7,10.9-2.2,21.9-2.2,21.9s-7.8-19.6-9.1-24c-2.8-8.9-9.2-13.5-9.2-13.5s0.3,8.1,0.5,16.5c0.3,11.5-3,21-3,21s-4.2-13.7-9-21.5
	c-5.6-9.2-10.5-14.2-10.5-14.2s-20.5,8.8-31.8,17.5c-9.7,7.5-27.9,26.4-27.9,26.4s1.7-8.7,3.7-14.8c4.9-14.7,6.8-24.2,6.8-24.2
	s-15.5,7.5-36.7,24.9c-15.9,13.1-33.8,29.6-33.8,29.6l12.4-38.3l-67.7,57c0,0,7.5-22.3,13.9-34.8c5.4-10.4,7.9-19.4,7.9-19.4
	s-14.5,7.7-40.4,33.5c-14.5,14.4-32.2,36.1-32.2,36.1s0.5-10.9,1.5-19.9c1-9,3.5-21.9,3.5-21.9s-18.8,17-26,39.8
	c-6.7,21.2-6.8,64.2-6.8,64.2S346,327.9,343.8,302.8z"/>
</svg>
