<?xml version="1.0" standalone="no"?>
<!DOCTYPE svg PUBLIC "-//W3C//DTD SVG 20010904//EN"
 "http://www.w3.org/TR/2001/REC-SVG-20010904/DTD/svg10.dtd">
<svg version="1.0" xmlns="http://www.w3.org/2000/svg"
 width="1892.000000pt" height="1892.000000pt" viewBox="0 0 1892.000000 1892.000000"
 preserveAspectRatio="xMidYMid meet">
<metadata>
Created by potrace 1.11, written by Peter Selinger 2001-2013
</metadata>
<g transform="translate(0.000000,1892.000000) scale(0.100000,-0.100000)"
fill="#000000" stroke="none">
<path d="M11020 18908 c0 -7 27 -96 60 -198 33 -101 60 -190 60 -196 0 -8 -13
-9 -42 -4 -24 5 -63 11 -88 14 -25 4 -79 11 -120 17 -92 14 -111 16 -178 24
-29 4 -61 8 -70 10 -10 2 -45 6 -77 10 -33 4 -67 9 -75 10 -9 2 -43 6 -75 10
-33 4 -73 9 -90 12 -16 2 -50 6 -75 9 -25 2 -60 6 -78 9 -18 3 -54 7 -80 10
-26 3 -81 10 -122 15 -120 15 -183 22 -210 25 -113 11 -169 17 -190 20 -22 3
-62 7 -200 20 -19 2 -66 6 -105 10 -38 4 -88 8 -110 10 -22 1 -89 6 -150 11
-208 16 -745 10 -970 -11 -140 -12 -192 -18 -210 -21 -11 -2 -45 -6 -75 -9
-30 -3 -66 -8 -80 -10 -14 -3 -38 -7 -55 -9 -94 -15 -225 -39 -302 -56 -48
-10 -124 -26 -168 -36 -44 -10 -84 -21 -89 -25 -7 -6 34 -145 104 -353 5 -16
9 -31 7 -32 -2 -2 -42 -10 -212 -40 -126 -23 -488 -114 -590 -148 -22 -8 -87
-28 -145 -46 -207 -64 -500 -176 -710 -272 -117 -54 -355 -171 -370 -183 -8
-7 -44 -27 -80 -46 -36 -18 -76 -41 -90 -50 -14 -9 -59 -36 -100 -60 -66 -38
-316 -203 -438 -287 -41 -29 -262 -201 -272 -212 -3 -3 -34 -30 -70 -60 -36
-30 -74 -64 -86 -75 -156 -147 -259 -253 -324 -334 -19 -24 -41 -49 -47 -56
-16 -16 -143 -205 -143 -212 0 -3 -9 -16 -20 -30 -22 -28 -25 -43 -10 -43 9 0
174 -88 247 -132 l33 -20 -58 -51 c-105 -94 -416 -411 -507 -517 -192 -224
-314 -396 -463 -655 -111 -192 -154 -283 -260 -550 -64 -160 -70 -143 55 -145
203 -3 283 -5 283 -7 0 -2 -36 -109 -80 -238 -43 -129 -79 -239 -80 -243 0 -4
-10 -38 -22 -77 -12 -38 -23 -74 -24 -80 -1 -5 -16 -62 -34 -125 -75 -273
-144 -587 -164 -755 -3 -22 -8 -58 -11 -80 -10 -68 -14 -98 -20 -160 -3 -33
-8 -74 -10 -91 -2 -17 -7 -71 -11 -120 -3 -49 -8 -109 -11 -134 -6 -58 -11
-900 -5 -963 l4 -47 58 47 c106 87 300 238 310 241 5 2 7 -37 4 -90 -5 -120
-5 -1118 0 -1268 6 -175 17 -438 21 -500 2 -30 7 -106 10 -168 3 -62 8 -121
10 -130 1 -9 6 -64 10 -122 4 -58 9 -113 11 -123 1 -9 6 -52 10 -96 l6 -78
-67 -37 c-144 -79 -310 -223 -406 -352 -24 -32 -46 -61 -50 -64 -25 -22 -135
-228 -184 -345 -32 -77 -84 -250 -100 -330 -14 -71 -34 -195 -42 -260 -16
-134 -8 -549 12 -653 2 -11 6 -42 10 -71 3 -29 18 -102 31 -164 14 -62 27
-122 29 -134 12 -52 88 -290 116 -361 47 -120 60 -149 120 -272 333 -682 895
-1189 1474 -1330 l90 -22 101 -206 c56 -114 131 -258 168 -320 56 -97 187
-299 217 -336 5 -6 66 -87 135 -181 363 -488 835 -1003 1304 -1425 52 -47 97
-87 100 -90 3 -3 61 -53 130 -110 69 -58 127 -107 130 -110 3 -3 34 -28 70
-55 35 -28 71 -55 80 -62 8 -7 42 -32 75 -57 33 -25 69 -53 80 -61 125 -98
464 -322 651 -431 230 -133 501 -270 694 -349 63 -26 124 -51 135 -56 109 -49
521 -177 655 -204 8 -2 33 -8 55 -13 22 -6 54 -13 70 -16 17 -3 73 -12 125
-21 52 -9 106 -18 120 -20 14 -3 50 -7 80 -11 30 -3 65 -7 77 -9 148 -24 594
-24 808 0 113 12 179 21 235 31 14 2 41 7 60 10 291 46 663 157 1000 296 142
58 445 204 565 271 33 19 87 49 120 67 443 247 1069 721 1519 1150 268 255
598 601 752 788 10 13 27 33 38 45 10 12 35 42 55 67 20 25 39 47 42 50 8 6
148 184 214 270 27 36 53 70 57 75 5 6 30 39 56 75 146 201 266 389 337 527
12 23 26 48 31 55 6 7 48 92 94 188 46 96 84 176 85 178 2 2 15 5 31 8 183 32
427 138 622 268 59 39 116 79 127 88 11 9 47 39 80 66 202 166 379 378 595
712 31 49 168 326 200 405 106 267 189 570 214 785 3 25 9 74 13 110 10 83 10
484 1 571 -12 106 -37 238 -63 339 -114 442 -363 799 -688 988 -77 44 -77 45
-73 81 4 34 32 225 41 281 2 14 7 45 10 70 3 25 8 56 10 70 2 14 7 49 10 79 4
30 8 63 11 74 2 11 6 45 9 76 3 31 7 66 9 78 3 12 7 50 11 85 3 35 8 74 10 88
2 14 6 52 10 85 3 33 8 76 10 95 4 34 9 88 20 208 3 31 8 77 10 102 3 25 7 77
10 115 3 39 7 93 10 120 7 81 16 216 20 286 9 168 16 334 20 439 2 89 12 155
44 290 22 96 42 191 45 210 3 19 8 49 11 65 3 17 9 68 15 115 6 47 12 101 15
120 4 33 9 92 20 245 11 144 5 598 -9 760 -25 272 -43 404 -82 595 -9 41 -18
89 -21 105 -8 53 -90 367 -126 485 -73 237 -235 666 -276 730 -9 13 -15 25
-14 27 4 5 -38 94 -138 298 -221 449 -429 818 -641 1133 -101 149 -291 409
-335 457 -10 11 -36 43 -58 70 -35 44 -67 82 -100 119 -5 6 -41 47 -80 91 -38
44 -150 161 -250 260 -155 156 -220 217 -400 374 -101 89 -340 272 -495 380
-339 237 -752 471 -1095 621 -66 28 -128 56 -137 61 -40 20 -417 163 -458 173
-8 2 -58 18 -110 34 -79 26 -200 59 -282 78 -10 2 -28 6 -40 9 -38 9 -160 33
-203 39 -40 6 -130 22 -172 32 -15 3 -23 0 -23 -8z"/>
</g>
</svg>
